# ProBuilder 4.4.0
# https://unity3d.com/unity/features/worldbuilding/probuilder
# 10/28/2020 5:35:41 PM

mtllib ./elevatorRoom.mtl
o elevatorRoom

g elevatorRoom
v 0 4.470348E-08 6.153275
v -1 4.470348E-08 6.153275
v 0 3.93 6.153275
v -1 3.93 6.153275
v -5.770004 4.470348E-08 6.319229
v -6.770004 4.470348E-08 6.319229
v -5.770004 3.93 6.319229
v -6.770004 3.93 6.319229
v 0 3.93 0
v -1 3.93 0
v 0 4.99 0
v -1 4.99 0
v -5.77 3.93 0
v -6.77 3.93 0
v -5.77 4.99 0
v -6.77 4.99 0
v -1 0 -0.505
v 0 0 -0.505
v -1 3.93 -0.505
v 0 3.93 -0.505
v -6.77 0 -0.505
v -5.77 0 -0.505
v -6.77 3.93 -0.505
v -5.77 3.93 -0.505
v -1 4.99 -0.505
v 0 4.99 -0.505
v -6.77 4.99 -0.505
v -5.77 4.99 -0.505
v -5.77 0 0
v -1 0 0
v -6.77 0 0
v -5.770004 4.470348E-08 6.153275
v -6.770004 4.470348E-08 6.153275
v -5.770004 3.93 6.153275
v -6.770004 3.93 6.153275
v -6.77 4.43 0
v -5.77 4.43 0
v -6.770004 4.43 6.153275
v -5.770004 4.43 6.153275
v 0 0 0
v 0.005447388 3.93 0
v 0.005447388 3.93 6.153275
v 0.005447388 4.43 0
v 0.005447388 4.43 6.153275
v -0.00390625 3.93 6.153275
v -0.00390625 4.470348E-08 6.153275
v -0.00390625 3.93 6.319229
v -0.00390625 4.470348E-08 6.319229

vt 0 4.470348E-08
vt -1 4.470348E-08
vt 0 3.93
vt -1 3.93
vt -5.770004 4.470348E-08
vt -6.770004 4.470348E-08
vt -5.770004 3.93
vt -6.770004 3.93
vt 0 4.99
vt -1 4.99
vt -5.77 3.93
vt -6.77 3.93
vt -5.77 4.99
vt -6.77 4.99
vt 1 0
vt 1 3.93
vt 6.77 0
vt 5.77 0
vt 6.77 3.93
vt 5.77 3.93
vt 1 4.99
vt 6.77 4.99
vt 5.77 4.99
vt -5.77 0
vt -5.77 -0.505
vt -1 -0.505
vt 0.505 0
vt 0.505 3.93
vt -0.505 0
vt -0.505 3.93
vt -6.77 0
vt -5.770004 6.153275
vt -6.770004 6.153275
vt -6.153278 3.93
vt -6.153278 4.470348E-08
vt 6.153279 4.470348E-08
vt 6.153279 3.93
vt 6.770004 6.153275
vt 5.770004 6.153275
vt 0 6.153275
vt -1 6.153275
vt 1 6.153275
vt 6.77 4.43
vt 5.77 4.43
vt 6.153279 4.43
vt 4.721663E-06 4.43
vt -6.153275 4.43
vt -5.770004 4.43
vt -6.770004 4.43
vt 0.005447388 0
vt 0.005447388 6.153275
vt -0.005447388 4.43
vt -0.005447388 3.93
vt 0.005447388 3.93
vt 0.005447388 4.43
vt -0.005447388 6.153275
vt -0.005447388 0
vt -5.770004 6.319229
vt -6.770004 6.319229
vt -6.319229 3.93
vt -6.319229 4.470348E-08
vt 6.319229 4.470348E-08
vt 6.319229 3.93
vt 6.770004 6.319229
vt 5.770004 6.319229
vt 5.770004 3.93
vt 5.770004 4.470348E-08
vt 0.00390625 3.93
vt 0.00390625 4.470348E-08
vt 0.00390625 6.319229
vt 0.00390625 6.153275
vt -0.00390625 6.153275
vt -0.00390625 6.319229
vt -0.00390625 4.470348E-08
vt -0.00390625 3.93

vn 0 0 1
vn 0 0 -1
vn 0 -1 0
vn 1 0 0
vn -1 0 0
vn 0 1 0

usemtl ProBuilderDefault
f 3/3/1 4/4/1 2/2/1 1/1/1
f 7/7/1 8/8/1 6/6/1 5/5/1
f 11/9/1 12/10/1 10/4/1 9/3/1
f 15/13/1 16/14/1 14/12/1 13/11/1
f 12/10/1 15/13/1 13/11/1 10/4/1
f 19/16/2 20/3/2 18/1/2 17/15/2
f 23/19/2 24/20/2 22/18/2 21/17/2
f 25/21/2 26/9/2 20/3/2 19/16/2
f 27/22/2 28/23/2 24/20/2 23/19/2
f 28/23/2 25/21/2 19/16/2 24/20/2
f 24/25/3 19/26/3 10/2/3 13/24/3
f 24/28/4 13/3/4 29/1/4 22/27/4
f 10/3/5 19/30/5 17/29/5 30/1/5
f 32/32/3 33/33/3 31/31/3 29/24/3
f 34/34/4 32/35/4 29/1/4 13/3/4
f 33/36/5 35/37/5 14/3/5 31/1/5
f 38/38/6 39/39/6 37/18/6 36/17/6
f 1/40/3 2/41/3 30/2/3 40/1/3
f 3/34/4 1/35/4 40/1/4 9/3/4
f 2/36/5 4/37/5 10/3/5 30/1/5
f 4/42/6 3/40/6 9/1/6 10/15/6
f 36/43/2 37/44/2 13/20/2 14/19/2
f 38/45/5 36/46/5 14/3/5 35/37/5
f 43/46/4 44/47/4 42/34/4 41/3/4
f 39/48/1 38/49/1 35/8/1 34/7/1
f 41/50/3 42/51/3 34/32/3 13/24/3
f 43/52/2 41/53/2 13/20/2 37/44/2
f 42/54/1 44/55/1 39/48/1 34/7/1
f 44/56/6 43/57/6 37/18/6 39/39/6
f 5/58/3 6/59/3 33/33/3 32/32/3
f 47/60/4 48/61/4 46/35/4 45/34/4
f 6/62/5 8/63/5 35/37/5 33/36/5
f 8/64/6 7/65/6 34/39/6 35/38/6
f 45/68/2 46/69/2 32/67/2 34/66/2
f 47/70/6 45/71/6 34/39/6 7/65/6
f 46/72/3 48/73/3 5/58/3 32/32/3
f 48/74/1 47/75/1 7/7/1 5/5/1

