# ProBuilder 4.4.0
# https://unity3d.com/unity/features/worldbuilding/probuilder
# 10/28/2020 5:35:41 PM

mtllib ./frontDoor.mtl
o frontDoor

g frontDoor
v 0 0 0
v -1 0 0
v 0 2.95 0
v -1 2.95 0
v -3.99 0 0
v -4.99 0 0
v -3.99 2.95 0
v -4.99 2.95 0
v 0 4.01 0
v -1 4.01 0
v -3.99 4.01 0
v -4.99 4.01 0
v -1 0 -0.55
v 0 0 -0.55
v -1 2.95 -0.55
v 0 2.95 -0.55
v -4.99 0 -0.55
v -3.99 0 -0.55
v -4.99 2.95 -0.55
v -3.99 2.95 -0.55
v -1 4.01 -0.55
v 0 4.01 -0.55
v -4.99 4.01 -0.55
v -3.99 4.01 -0.55

vt 0 0
vt -1 0
vt 0 2.95
vt -1 2.95
vt -3.99 0
vt -4.99 0
vt -3.99 2.95
vt -4.99 2.95
vt 0 4.01
vt -1 4.01
vt -3.99 4.01
vt -4.99 4.01
vt 1 0
vt 1 2.95
vt 4.99 0
vt 3.99 0
vt 4.99 2.95
vt 3.99 2.95
vt 1 4.01
vt 4.99 4.01
vt 3.99 4.01
vt -3.99 -0.55
vt -1 -0.55
vt 0.55 0
vt 0.55 2.95
vt -0.55 0
vt -0.55 2.95

vn 0 0 1
vn 0 0 -1
vn 0 -1 0
vn 1 0 0
vn -1 0 0

usemtl ProBuilderDefault
f 3/3/1 4/4/1 2/2/1 1/1/1
f 7/7/1 8/8/1 6/6/1 5/5/1
f 9/9/1 10/10/1 4/4/1 3/3/1
f 11/11/1 12/12/1 8/8/1 7/7/1
f 10/10/1 11/11/1 7/7/1 4/4/1
f 15/14/2 16/3/2 14/1/2 13/13/2
f 19/17/2 20/18/2 18/16/2 17/15/2
f 21/19/2 22/9/2 16/3/2 15/14/2
f 23/20/2 24/21/2 20/18/2 19/17/2
f 24/21/2 21/19/2 15/14/2 20/18/2
f 20/22/3 15/23/3 4/2/3 7/5/3
f 20/25/4 7/3/4 5/1/4 18/24/4
f 4/3/5 15/27/5 13/26/5 2/1/5

