# ProBuilder 4.2.3
# https://unity3d.com/unity/features/worldbuilding/probuilder
# 12/10/2020 9:48:49 AM

mtllib ./KeyCard.mtl
o KeyCard

g KeyCard
v -0.008943187 0.029 0
v -0.02105681 0.029 0
v -0.008943187 0.231 0
v -0.02105681 0.231 0
v -0.02105681 0.008943187 -0.18
v -0.008943187 0.008943187 -0.18
v -0.02105681 0.26 -0.18
v -0.008943187 0.26 -0.18
v -0.008943187 0.26 -0.029
v -0.02105681 0.26 -0.029
v -0.008943187 0 -0.1710568
v -0.02105681 0 -0.1710568
v -0.008943187 0 -0.029
v -0.02105681 0 -0.029
v 0 0.2512057 -0.1710581
v 0 0.008943187 -0.1710569
v 0 0.006323788 -0.02267621
v 0 0.02267621 -0.006323789
v 0 0.2373238 -0.006323789
v 0 0.2536762 -0.02267621
v -0.03 0.02267621 -0.006323789
v -0.03 0.006323788 -0.02267621
v -0.03 0.008794306 -0.1710581
v -0.03 0.2512057 -0.1710581
v -0.03 0.2536762 -0.02267621
v -0.03 0.2373238 -0.006323789

vt -0.008943187 0.029
vt -0.02105681 0.029
vt -0.008943187 0.231
vt -0.02105681 0.231
vt 0.02105681 0.008943187
vt 0.008943187 0.008943187
vt 0.02105681 0.26
vt 0.008943187 0.26
vt 0.008943187 -0.029
vt 0.02105681 -0.029
vt 0.008943187 -0.18
vt 0.02105681 -0.18
vt -0.008943187 -0.1710568
vt -0.02105681 -0.1710568
vt -0.008943187 -0.029
vt -0.02105681 -0.029
vt 0.1710581 0.2512057
vt 0.1710569 0.008943187
vt 0.02267621 0.006323788
vt 0.006323789 0.02267621
vt 0.006323789 0.2373238
vt 0.02267621 0.2536762
vt -0.006323789 0.02267621
vt -0.02267621 0.006323788
vt -0.1710581 0.008794306
vt -0.1710581 0.2512057
vt -0.02267621 0.2536762
vt -0.006323789 0.2373238
vt -0.01719281 0.029
vt -0.01719281 0.231
vt -0.02814594 0.02267621
vt -0.02814594 0.2373238
vt -0.007302082 0.231
vt -0.007302082 0.029
vt 0.003651042 0.2373238
vt 0.003651042 0.02267621
vt 0.1886749 -0.18
vt 0.1886749 -0.029
vt 0.1761321 -0.1710581
vt 0.1778643 -0.02267621
vt -0.1329182 -0.029
vt -0.1329182 -0.18
vt -0.1219651 -0.02267621
vt -0.1205387 -0.1710581
vt -0.01501386 -0.1710568
vt -0.01501386 -0.029
vt -0.02755661 -0.1710581
vt -0.02582441 -0.02267621
vt 0.02105681 0.133603
vt 0.008943187 0.133603
vt 0.02105681 0.1209554
vt 0.008943187 0.1209554
vt -0.11238 0.26
vt -0.11238 0.008943187
vt -0.09973327 0.2512057
vt -0.09973327 0.008794306
vt 0.1336027 0.008943187
vt 0.1336027 0.26
vt 0.1209552 0.008943187
vt 0.120956 0.2512057
vt -0.007302082 -0.029
vt -0.007302082 -0.1710568
vt 0.003651041 -0.02267621
vt 0.005163352 -0.1710569
vt -0.008943187 0.1633417
vt -0.02105681 0.1633417
vt -0.03 0.1722849
vt -0.03 0.1954107
vt -0.02105681 0.2043539
vt -0.008943187 0.2043539
vt -1.257559E-10 0.1954107
vt -3.506996E-11 0.1722849
vt -0.008943187 0.0205061
vt -1.076709E-10 0.01156291
vt -3.860926E-10 -0.01156291
vt -0.008943188 -0.0205061
vt -0.02105681 -0.0205061
vt -0.03 -0.01156291
vt -0.03 0.01156291
vt -0.02105681 0.0205061
vt -0.1049125 0.07938723
vt -0.09853625 0.09018835
vt -0.1111825 0.09037121
vt 0.1336027 0.07713605
vt 0.1272789 0.06618292
vt 0.1209552 0.07713605

vn 0 0 1
vn 0 0 -1
vn 0 1 0
vn 0 -1 0
vn 1 0 0
vn -1 0 0
vn -0.5773503 0 0.8164966
vn 0.5773503 0 0.8164966
vn 0.701147 0.7130167 0
vn 0.6423995 0.762454 -0.006758901
vn 0.5836521 0.8118913 -0.0135178
vn -0.57735 0.8164967 0
vn -0.6422039 0.7617772 -0.005886173
vn -0.7070578 0.7070577 -0.01177235
vn -0.7011469 -0.7130169 0
vn -0.6423995 -0.762454 -0.006758885
vn -0.5836523 -0.8118912 -0.01351777
vn 0 -0.7071067 -0.7071068
vn -0.7070578 0 -0.7071558
vn 0.707105 0 -0.7071086
vn 0.5773503 -0.8164966 0
vn 0.6422009 -0.7617742 -0.006240876
vn 0.7070517 -0.7070518 -0.01248175
vn 0 0.707107 0.7071066
vn 0 -0.7071068 0.7071068
vn -0.570835 -0.5805805 -0.5805806
vn 0.5773483 -0.5773512 -0.5773513

usemtl mat_Keycard
f 19/21/5 15/17/5 20/22/5
f 18/20/5 15/17/5 19/21/5
f 16/18/5 15/17/5 18/20/5
f 17/19/5 16/18/5 18/20/5
f 21/23/6 23/25/6 22/24/6
f 21/23/6 24/26/6 23/25/6
f 26/28/6 24/26/6 21/23/6
f 25/27/6 24/26/6 26/28/6
f 26/67/24 4/66/24 3/65/24
f 3/65/24 19/72/24 26/67/24
f 19/72/24 25/68/24 26/67/24
f 25/68/24 19/72/24 20/71/24
f 20/71/24 9/70/24 25/68/24
f 9/70/24 10/69/24 25/68/24
f 22/78/25 14/77/25 13/76/25
f 13/76/25 17/75/25 22/78/25
f 17/75/25 18/74/25 22/78/25
f 22/78/25 18/74/25 21/79/25
f 18/74/25 1/73/25 21/79/25
f 1/73/25 2/80/25 21/79/25
f 12/81/26 23/82/26 5/83/26
f 16/86/27 11/85/27 6/84/27
f 4/4/1 2/2/1 1/1/1
f 1/1/1 3/3/1 4/4/1
f 8/8/2 6/6/2 5/5/2
f 5/5/2 7/7/2 8/8/2
f 7/12/3 10/10/3 9/9/3
f 9/9/3 8/11/3 7/12/3
f 14/16/4 12/14/4 11/13/4
f 11/13/4 13/15/4 14/16/4
f 21/31/7 2/29/7 4/30/7
f 4/30/7 26/32/7 21/31/7
f 19/35/8 3/33/8 1/34/8
f 1/34/8 18/36/8 19/35/8
f 15/39/10 8/37/9 9/38/10
f 9/38/10 20/40/11 15/39/10
f 25/43/13 10/41/12 7/42/13
f 7/42/13 24/44/14 25/43/13
f 23/47/16 12/45/15 14/46/16
f 14/46/16 22/48/17 23/47/16
f 12/51/18 5/49/18 6/50/18
f 6/50/18 11/52/18 12/51/18
f 24/55/19 7/53/19 5/54/19
f 5/54/19 23/56/19 24/55/19
f 16/59/20 6/57/20 8/58/20
f 8/58/20 15/60/20 16/59/20
f 17/63/22 13/61/21 11/62/22
f 11/62/22 16/64/23 17/63/22

